999
"DXF R12 Output" (www.mydxf.blogspot.com)
 0 
SECTION
 2 
HEADER
 9 
$ACADVER
 1 
AC1009
 9 
$EXTMIN
 10 
 0 
 20 
 0 
 9 
$EXTMAX
 10 
 8.5 
 20 
 11 
 0 
ENDSEC
 0 
SECTION
 2 
ENTITIES
0
LINE
8
Layer 1
10
123.449000
20
278.390000
11
123.272096
21
276.602002
0
LINE
8
Layer 1
10
123.272096
20
276.602002
11
122.754600
21
274.899018
0
LINE
8
Layer 1
10
122.754600
20
274.899018
11
121.916333
21
273.328901
0
LINE
8
Layer 1
10
121.916333
20
273.328901
11
120.777116
21
271.939507
0
LINE
8
Layer 1
10
120.777116
20
271.939507
11
119.387720
21
270.800292
0
LINE
8
Layer 1
10
119.387720
20
270.800292
11
117.817603
21
269.962026
0
LINE
8
Layer 1
10
117.817603
20
269.962026
11
116.114618
21
269.444532
0
LINE
8
Layer 1
10
116.114618
20
269.444532
11
114.326620
21
269.267630
0
LINE
8
Layer 1
10
114.326620
20
269.267630
11
112.538623
21
269.444533
0
LINE
8
Layer 1
10
112.538623
20
269.444533
11
110.835640
21
269.962029
0
LINE
8
Layer 1
10
110.835640
20
269.962029
11
109.265525
21
270.800295
0
LINE
8
Layer 1
10
109.265525
20
270.800295
11
107.876130
21
271.939510
0
LINE
8
Layer 1
10
107.876130
20
271.939510
11
106.736915
21
273.328905
0
LINE
8
Layer 1
10
106.736915
20
273.328905
11
105.898649
21
274.899020
0
LINE
8
Layer 1
10
105.898649
20
274.899020
11
105.381153
21
276.602003
0
LINE
8
Layer 1
10
105.381153
20
276.602003
11
105.204250
21
278.390000
0
LINE
8
Layer 1
10
105.204250
20
278.390000
11
105.381153
21
280.177997
0
LINE
8
Layer 1
10
105.381153
20
280.177997
11
105.898649
21
281.880980
0
LINE
8
Layer 1
10
105.898649
20
281.880980
11
106.736915
21
283.451095
0
LINE
8
Layer 1
10
106.736915
20
283.451095
11
107.876130
21
284.840490
0
LINE
8
Layer 1
10
107.876130
20
284.840490
11
109.265525
21
285.979705
0
LINE
8
Layer 1
10
109.265525
20
285.979705
11
110.835640
21
286.817971
0
LINE
8
Layer 1
10
110.835640
20
286.817971
11
112.538623
21
287.335467
0
LINE
8
Layer 1
10
112.538623
20
287.335467
11
114.326620
21
287.512370
0
LINE
8
Layer 1
10
114.326620
20
287.512370
11
116.114618
21
287.335468
0
LINE
8
Layer 1
10
116.114618
20
287.335468
11
117.817603
21
286.817974
0
LINE
8
Layer 1
10
117.817603
20
286.817974
11
119.387720
21
285.979708
0
LINE
8
Layer 1
10
119.387720
20
285.979708
11
120.777116
21
284.840493
0
LINE
8
Layer 1
10
120.777116
20
284.840493
11
121.916333
21
283.451099
0
LINE
8
Layer 1
10
121.916333
20
283.451099
11
122.754600
21
281.880982
0
LINE
8
Layer 1
10
122.754600
20
281.880982
11
123.272096
21
280.177998
0
LINE
8
Layer 1
10
123.272096
20
280.177998
11
123.449000
21
278.390000
0
LINE
8
Layer 1
10
123.449000
20
278.390000
11
123.449000
21
278.390000
 0 
ENDSEC
 0 
EOF