999
"DXF R12 Output" (www.mydxf.blogspot.com)
 0 
SECTION
 2 
HEADER
 9 
$ACADVER
 1 
AC1009
 9 
$EXTMIN
 10 
 0 
 20 
 0 
 9 
$EXTMAX
 10 
 8.5 
 20 
 11 
 0 
ENDSEC
 0 
SECTION
 2 
ENTITIES
0
LINE
8
Layer 1
10
28.096900
20
278.390000
11
27.911500
21
276.551578
0
LINE
8
Layer 1
10
27.911500
20
276.551578
11
27.379909
21
274.839273
0
LINE
8
Layer 1
10
27.379909
20
274.839273
11
26.538808
21
273.289767
0
LINE
8
Layer 1
10
26.538808
20
273.289767
11
25.424878
21
271.939739
0
LINE
8
Layer 1
10
25.424878
20
271.939739
11
24.074801
21
270.825868
0
LINE
8
Layer 1
10
24.074801
20
270.825868
11
22.525258
21
269.984835
0
LINE
8
Layer 1
10
22.525258
20
269.984835
11
20.812931
21
269.453319
0
LINE
8
Layer 1
10
20.812931
20
269.453319
11
18.974500
21
269.268000
0
LINE
8
Layer 1
10
18.974500
20
269.268000
11
17.136080
21
269.453331
0
LINE
8
Layer 1
10
17.136080
20
269.453331
11
15.423764
21
269.984855
0
LINE
8
Layer 1
10
15.423764
20
269.984855
11
13.874233
21
270.825892
0
LINE
8
Layer 1
10
13.874233
20
270.825892
11
12.524167
21
271.939764
0
LINE
8
Layer 1
10
12.524167
20
271.939764
11
11.410247
21
273.289789
0
LINE
8
Layer 1
10
11.410247
20
273.289789
11
10.569154
21
274.839290
0
LINE
8
Layer 1
10
10.569154
20
274.839290
11
10.037568
21
276.551587
0
LINE
8
Layer 1
10
10.037568
20
276.551587
11
9.852170
21
278.390000
0
LINE
8
Layer 1
10
9.852170
20
278.390000
11
10.028965
21
280.178082
0
LINE
8
Layer 1
10
10.028965
20
280.178082
11
10.546384
21
281.881164
0
LINE
8
Layer 1
10
10.546384
20
281.881164
11
11.384608
21
283.451385
0
LINE
8
Layer 1
10
11.384608
20
283.451385
11
12.523813
21
284.840883
0
LINE
8
Layer 1
10
12.523813
20
284.840883
11
13.913228
21
285.980190
0
LINE
8
Layer 1
10
13.913228
20
285.980190
11
15.483387
21
286.818529
0
LINE
8
Layer 1
10
15.483387
20
286.818529
11
17.186431
21
287.336074
0
LINE
8
Layer 1
10
17.186431
20
287.336074
11
18.974500
21
287.513000
0
LINE
8
Layer 1
10
18.974500
20
287.513000
11
20.762579
21
287.336086
0
LINE
8
Layer 1
10
20.762579
20
287.336086
11
22.465635
21
286.818549
0
LINE
8
Layer 1
10
22.465635
20
286.818549
11
24.035806
21
285.980215
0
LINE
8
Layer 1
10
24.035806
20
285.980215
11
25.425232
21
284.840908
0
LINE
8
Layer 1
10
25.425232
20
284.840908
11
26.564448
21
283.451406
0
LINE
8
Layer 1
10
26.564448
20
283.451406
11
27.402679
21
281.881180
0
LINE
8
Layer 1
10
27.402679
20
281.881180
11
27.920104
21
280.178091
0
LINE
8
Layer 1
10
27.920104
20
280.178091
11
28.096900
21
278.390000
0
LINE
8
Layer 1
10
28.096900
20
278.390000
11
28.096900
21
278.390000
 0 
ENDSEC
 0 
EOF