999
"DXF R12 Output" (www.mydxf.blogspot.com)
 0 
SECTION
 2 
HEADER
 9 
$ACADVER
 1 
AC1009
 9 
$EXTMIN
 10 
 0 
 20 
 0 
 9 
$EXTMAX
 10 
 8.5 
 20 
 11 
 0 
ENDSEC
 0 
SECTION
 2 
ENTITIES
0
LINE
8
Layer 1
10
29.761800
20
232.688000
11
32.643994
21
232.730405
0
LINE
8
Layer 1
10
32.643994
20
232.730405
11
35.150423
21
232.599627
0
LINE
8
Layer 1
10
35.150423
20
232.599627
11
37.307280
21
232.319185
0
LINE
8
Layer 1
10
37.307280
20
232.319185
11
39.140755
21
231.912597
0
LINE
8
Layer 1
10
39.140755
20
231.912597
11
40.677039
21
231.403383
0
LINE
8
Layer 1
10
40.677039
20
231.403383
11
41.942324
21
230.815061
0
LINE
8
Layer 1
10
41.942324
20
230.815061
11
42.962802
21
230.171149
0
LINE
8
Layer 1
10
42.962802
20
230.171149
11
43.764663
21
229.495166
0
LINE
8
Layer 1
10
43.764663
20
229.495166
11
44.817299
21
228.141063
0
LINE
8
Layer 1
10
44.817299
20
228.141063
11
45.309764
21
226.940900
0
LINE
8
Layer 1
10
45.309764
20
226.940900
11
45.451588
21
226.082826
0
LINE
8
Layer 1
10
45.451588
20
226.082826
11
45.452300
21
225.754990
0
LINE
8
Layer 1
10
45.452300
20
225.754990
11
46.362488
21
224.320087
0
LINE
8
Layer 1
10
46.362488
20
224.320087
11
47.055128
21
222.896409
0
LINE
8
Layer 1
10
47.055128
20
222.896409
11
47.552137
21
221.495180
0
LINE
8
Layer 1
10
47.552137
20
221.495180
11
47.875429
21
220.127625
0
LINE
8
Layer 1
10
47.875429
20
220.127625
11
48.088521
21
217.538437
0
LINE
8
Layer 1
10
48.088521
20
217.538437
11
47.869727
21
215.218644
0
LINE
8
Layer 1
10
47.869727
20
215.218644
11
47.394366
21
213.258043
0
LINE
8
Layer 1
10
47.394366
20
213.258043
11
46.837759
21
211.746435
0
LINE
8
Layer 1
10
46.837759
20
211.746435
11
46.182089
21
210.429390
0
LINE
8
Layer 1
10
46.182089
20
210.429390
11
34.505400
21
203.497000
0
LINE
8
Layer 1
10
34.505400
20
203.497000
11
36.403989
21
203.303149
0
LINE
8
Layer 1
10
36.403989
20
203.303149
11
40.936662
21
202.493538
0
LINE
8
Layer 1
10
40.936662
20
202.493538
11
43.645581
21
201.750919
0
LINE
8
Layer 1
10
43.645581
20
201.750919
11
46.358780
21
200.726077
0
LINE
8
Layer 1
10
46.358780
20
200.726077
11
48.858179
21
199.376251
0
LINE
8
Layer 1
10
48.858179
20
199.376251
11
49.959555
21
198.566106
0
LINE
8
Layer 1
10
49.959555
20
198.566106
11
50.925700
21
197.658680
0
LINE
8
Layer 1
10
50.925700
20
197.658680
11
52.152945
21
196.094334
0
LINE
8
Layer 1
10
52.152945
20
196.094334
11
53.080861
21
194.448743
0
LINE
8
Layer 1
10
53.080861
20
194.448743
11
53.683793
21
192.777497
0
LINE
8
Layer 1
10
53.683793
20
192.777497
11
53.936084
21
191.136185
0
LINE
8
Layer 1
10
53.936084
20
191.136185
11
53.812076
21
189.580398
0
LINE
8
Layer 1
10
53.812076
20
189.580398
11
53.286115
21
188.165725
0
LINE
8
Layer 1
10
53.286115
20
188.165725
11
52.332541
21
186.947756
0
LINE
8
Layer 1
10
52.332541
20
186.947756
11
50.925700
21
185.982080
0
LINE
8
Layer 1
10
50.925700
20
185.982080
11
41.854663
21
185.828138
0
LINE
8
Layer 1
10
41.854663
20
185.828138
11
31.996800
21
185.845242
0
LINE
8
Layer 1
10
31.996800
20
185.845242
11
12.246800
21
185.982080
0
LINE
8
Layer 1
10
12.246800
20
185.982080
11
11.304630
21
187.504374
0
LINE
8
Layer 1
10
11.304630
20
187.504374
11
10.661788
21
189.266128
0
LINE
8
Layer 1
10
10.661788
20
189.266128
11
10.309722
21
191.164715
0
LINE
8
Layer 1
10
10.309722
20
191.164715
11
10.239879
21
193.097511
0
LINE
8
Layer 1
10
10.239879
20
193.097511
11
10.443708
21
194.961891
0
LINE
8
Layer 1
10
10.443708
20
194.961891
11
10.912655
21
196.655229
0
LINE
8
Layer 1
10
10.912655
20
196.655229
11
11.638168
21
198.074901
0
LINE
8
Layer 1
10
11.638168
20
198.074901
11
12.611695
21
199.118280
0
LINE
8
Layer 1
10
12.611695
20
199.118280
11
13.679300
21
200.055463
0
LINE
8
Layer 1
10
13.679300
20
200.055463
11
15.131757
21
200.937056
0
LINE
8
Layer 1
10
15.131757
20
200.937056
11
18.541259
21
202.447951
0
LINE
8
Layer 1
10
18.541259
20
202.447951
11
21.540253
21
203.479920
0
LINE
8
Layer 1
10
21.540253
20
203.479920
11
22.828795
21
203.861920
0
LINE
8
Layer 1
10
22.828795
20
203.861920
11
12.976600
21
211.159000
0
LINE
8
Layer 1
10
12.976600
20
211.159000
11
11.958440
21
213.387919
0
LINE
8
Layer 1
10
11.958440
20
213.387919
11
11.211279
21
215.426554
0
LINE
8
Layer 1
10
11.211279
20
215.426554
11
10.706787
21
217.281316
0
LINE
8
Layer 1
10
10.706787
20
217.281316
11
10.416636
21
218.958622
0
LINE
8
Layer 1
10
10.416636
20
218.958622
11
10.312495
21
220.464884
0
LINE
8
Layer 1
10
10.312495
20
220.464884
11
10.366035
21
221.806517
0
LINE
8
Layer 1
10
10.366035
20
221.806517
11
10.832844
21
224.021550
0
LINE
8
Layer 1
10
10.832844
20
224.021550
11
11.590428
21
225.655033
0
LINE
8
Layer 1
10
11.590428
20
225.655033
11
12.412154
21
226.758278
0
LINE
8
Layer 1
10
12.412154
20
226.758278
11
13.341495
21
227.579300
0
LINE
8
Layer 1
10
13.341495
20
227.579300
11
14.608294
21
228.899462
0
LINE
8
Layer 1
10
14.608294
20
228.899462
11
15.932821
21
229.998869
0
LINE
8
Layer 1
10
15.932821
20
229.998869
11
17.295833
21
230.896229
0
LINE
8
Layer 1
10
17.295833
20
230.896229
11
18.678088
21
231.610252
0
LINE
8
Layer 1
10
18.678088
20
231.610252
11
21.423357
21
232.563112
0
LINE
8
Layer 1
10
21.423357
20
232.563112
11
24.014686
21
233.007115
0
LINE
8
Layer 1
10
24.014686
20
233.007115
11
26.298135
21
233.091924
0
LINE
8
Layer 1
10
26.298135
20
233.091924
11
28.119764
21
232.967203
0
LINE
8
Layer 1
10
28.119764
20
232.967203
11
29.761795
21
232.687830
0
LINE
8
Layer 1
10
29.761795
20
232.687830
11
29.761800
21
232.688000
 0 
ENDSEC
 0 
EOF