<?xml version="1.0" encoding="UTF-8" standalone="no"?>
<!-- Created with Inkscape (http://www.inkscape.org/) -->

<svg
   width="210mm"
   height="297mm"
   viewBox="0 0 210 297"
   version="1.1"
   id="svg2840"
   inkscape:version="1.2.1 (9c6d41e410, 2022-07-14)"
   sodipodi:docname="random-1.svg"
   xmlns:inkscape="http://www.inkscape.org/namespaces/inkscape"
   xmlns:sodipodi="http://sodipodi.sourceforge.net/DTD/sodipodi-0.dtd"
   xmlns="http://www.w3.org/2000/svg"
   xmlns:svg="http://www.w3.org/2000/svg">
  <sodipodi:namedview
     id="namedview2842"
     pagecolor="#505050"
     bordercolor="#eeeeee"
     borderopacity="1"
     inkscape:showpageshadow="0"
     inkscape:pageopacity="0"
     inkscape:pagecheckerboard="0"
     inkscape:deskcolor="#505050"
     inkscape:document-units="mm"
     showgrid="false"
     inkscape:zoom="0.66791975"
     inkscape:cx="341.35837"
     inkscape:cy="419.21204"
     inkscape:window-width="1536"
     inkscape:window-height="953"
     inkscape:window-x="-8"
     inkscape:window-y="-8"
     inkscape:window-maximized="1"
     inkscape:current-layer="layer1" />
  <defs
     id="defs2837" />
  <g
     inkscape:label="Layer 1"
     inkscape:groupmode="layer"
     id="layer1">
    <path
       style="fill:none;stroke:#ffffff;stroke-width:1;stroke-dasharray:none;stroke-opacity:1"
       d="m 29.761796,64.311814 c 16.420275,-0.72979 15.690486,6.933005 15.690486,6.933005 5.473425,7.662795 0.729789,15.325589 0.729789,15.325589 L 34.50543,93.503412 c 0,0 11.676642,0.729793 16.420277,5.838323 3.64895,4.013845 4.37874,9.487265 0,11.676635 -11.311745,0.3649 -26.272441,0 -38.67887,0 -2.9191596,-3.64895 -2.5542646,-10.94685 0.364895,-13.136217 2.18937,-2.554265 10.217059,-4.743635 10.217059,-4.743635 L 12.976627,85.84062 c -6.2032146,-12.40643 0.364895,-16.420276 0.364895,-16.420276 6.56811,-7.662795 16.420274,-5.10853 16.420274,-5.10853 z"
       id="path1374"
       sodipodi:nodetypes="cccccccccccc" />
  </g>
</svg>
